<?xml version="1.0" encoding="utf-8"?>
<!-- Generator: Adobe Illustrator 22.0.1, SVG Export Plug-In . SVG Version: 6.00 Build 0)  -->
<svg version="1.1" id="Layer_1" xmlns="http://www.w3.org/2000/svg" xmlns:xlink="http://www.w3.org/1999/xlink" x="0px" y="0px"
	 viewBox="0 0 31.8 46.4" style="enable-background:new 0 0 31.8 46.4;" xml:space="preserve">
<style type="text/css">
	.st0{fill:#FFFFFF;}
	.st1{fill:#6D9F71;stroke:#337357;stroke-width:1.1;stroke-linecap:round;}
	.st2{fill:none;stroke:#FFFFFF;stroke-width:1.1;stroke-linecap:round;stroke-opacity:0.122;}
</style>
<path class="st0" d="M9.6,6.8h12.6v14.5H9.6V6.8z"/>
<path class="st1" d="M15.9,2.9c-6.6,0-12,5.7-12,11.9c0,2.8,1.6,6.3,2.7,8.7l9.3,17.9l9.3-17.9c1.1-2.4,2.7-5.8,2.7-8.7
	C27.8,8.6,22.4,2.9,15.9,2.9L15.9,2.9z M15.9,10c2.6,0,4.7,2.1,4.7,4.7s-2.1,4.7-4.7,4.7c-2.6,0-4.7-2.1-4.7-4.7
	C11.2,12.1,13.3,10,15.9,10z"/>
<path class="st2" d="M15.8,4C9.9,4,4.9,9.2,4.9,14.7c0,2.4,1.4,5.8,2.6,8.2l0,0l8.3,16l8.2-16l0,0c1.1-2.4,2.6-5.7,2.6-8.2
	C26.7,9.2,21.8,4,15.8,4z M15.8,8.9c3.2,0,5.8,2.6,5.8,5.8s-2.6,5.8-5.8,5.8c-3.2,0-5.8-2.6-5.8-5.8C10.1,11.5,12.7,9,15.8,8.9z"/>
</svg>
