<?xml version="1.0" encoding="utf-8"?>
<!-- Generator: Adobe Illustrator 22.0.1, SVG Export Plug-In . SVG Version: 6.00 Build 0)  -->
<svg version="1.1" id="Layer_1" xmlns="http://www.w3.org/2000/svg" xmlns:xlink="http://www.w3.org/1999/xlink" x="0px" y="0px"
	 viewBox="0 0 558.7 202.7" style="enable-background:new 0 0 558.7 202.7;" xml:space="preserve">
<g>
	<g>
		<path d="M208.5,79.1c0,2.7-0.4,5.1-1.3,7.2c-0.8,2.2-2,4-3.6,5.6c-1.5,1.5-3.4,2.7-5.5,3.6c-2.1,0.9-4.5,1.3-7.1,1.3h-13.2V61.4
			h13.2c2.6,0,5,0.4,7.1,1.3c2.1,0.8,4,2,5.5,3.6c1.5,1.6,2.7,3.4,3.6,5.6C208.1,74.1,208.5,76.5,208.5,79.1z M203.6,79.1
			c0-2.2-0.3-4.1-0.9-5.8c-0.6-1.7-1.4-3.2-2.5-4.3c-1.1-1.2-2.4-2.1-4-2.7c-1.5-0.6-3.3-0.9-5.2-0.9h-8.4V93h8.4
			c1.9,0,3.6-0.3,5.2-0.9s2.9-1.5,4-2.7c1.1-1.2,1.9-2.6,2.5-4.3C203.3,83.3,203.6,81.3,203.6,79.1z"/>
		<path d="M232.7,96.8h-2c-0.4,0-0.8-0.1-1-0.2c-0.3-0.1-0.4-0.4-0.5-0.8l-0.5-2.3c-0.7,0.6-1.3,1.1-1.9,1.6c-0.6,0.5-1.3,0.9-2,1.2
			c-0.7,0.3-1.4,0.6-2.2,0.7c-0.8,0.2-1.7,0.2-2.6,0.2c-1,0-1.9-0.1-2.7-0.4c-0.9-0.3-1.6-0.7-2.2-1.2s-1.1-1.2-1.5-2.1
			c-0.4-0.8-0.6-1.8-0.6-3c0-1,0.3-1.9,0.8-2.9c0.5-0.9,1.4-1.7,2.6-2.4c1.2-0.7,2.8-1.3,4.8-1.7c2-0.5,4.4-0.7,7.2-0.7v-2
			c0-2-0.4-3.4-1.2-4.4c-0.8-1-2.1-1.5-3.7-1.5c-1.1,0-2,0.1-2.7,0.4s-1.4,0.6-1.9,0.9c-0.5,0.3-1,0.6-1.4,0.9s-0.8,0.4-1.1,0.4
			c-0.3,0-0.6-0.1-0.8-0.2c-0.2-0.2-0.4-0.3-0.5-0.6l-0.8-1.4c1.4-1.3,2.9-2.3,4.5-3c1.6-0.7,3.4-1,5.3-1c1.4,0,2.6,0.2,3.7,0.7
			c1.1,0.5,2,1.1,2.7,1.9c0.7,0.8,1.3,1.8,1.7,3s0.6,2.5,0.6,3.9V96.8z M221.3,94.1c0.8,0,1.5-0.1,2.1-0.2c0.6-0.2,1.2-0.4,1.8-0.7
			s1.1-0.6,1.6-1.1c0.5-0.4,1-0.9,1.5-1.4v-5.2c-2,0-3.7,0.1-5.2,0.4c-1.4,0.3-2.6,0.6-3.5,1c-0.9,0.4-1.5,0.9-1.9,1.5
			c-0.4,0.6-0.6,1.2-0.6,1.9c0,0.7,0.1,1.2,0.3,1.7c0.2,0.5,0.5,0.9,0.9,1.2c0.4,0.3,0.8,0.5,1.3,0.7
			C220.2,94.1,220.7,94.1,221.3,94.1z"/>
		<path d="M235.4,71.8h3.6c0.3,0,0.6,0.1,0.9,0.3c0.2,0.2,0.4,0.4,0.5,0.6l6.3,16.1c0.2,0.6,0.4,1.2,0.5,1.8
			c0.1,0.6,0.3,1.2,0.4,1.8c0.1-0.6,0.3-1.2,0.4-1.8c0.1-0.6,0.3-1.2,0.6-1.8l6.4-16.1c0.1-0.3,0.3-0.5,0.5-0.7
			c0.2-0.2,0.5-0.3,0.8-0.3h3.4l-10.2,25h-4L235.4,71.8z"/>
		<path d="M269.8,64c0,0.4-0.1,0.8-0.3,1.2c-0.2,0.4-0.4,0.7-0.7,1c-0.3,0.3-0.6,0.5-1,0.7c-0.4,0.2-0.8,0.2-1.2,0.2
			c-0.4,0-0.8-0.1-1.2-0.2c-0.4-0.2-0.7-0.4-1-0.7c-0.3-0.3-0.5-0.6-0.7-1c-0.2-0.4-0.2-0.8-0.2-1.2c0-0.4,0.1-0.8,0.2-1.2
			c0.2-0.4,0.4-0.7,0.7-1c0.3-0.3,0.6-0.5,1-0.7c0.4-0.2,0.8-0.2,1.2-0.2c0.4,0,0.8,0.1,1.2,0.2c0.4,0.2,0.7,0.4,1,0.7
			c0.3,0.3,0.5,0.6,0.7,1C269.7,63.1,269.8,63.5,269.8,64z M268.8,71.8v25h-4.4v-25H268.8z"/>
		<path d="M294.1,96.8c-0.6,0-1-0.3-1.2-0.9l-0.4-3c-1.1,1.3-2.3,2.3-3.7,3.1c-1.4,0.8-3,1.2-4.7,1.2c-1.4,0-2.7-0.3-3.9-0.8
			s-2.2-1.4-3-2.4c-0.8-1.1-1.5-2.4-1.9-4c-0.4-1.6-0.7-3.4-0.7-5.5c0-1.8,0.2-3.6,0.7-5.1c0.5-1.6,1.2-3,2.1-4.1
			c0.9-1.2,2.1-2.1,3.4-2.8c1.3-0.7,2.8-1,4.5-1c1.5,0,2.8,0.3,3.9,0.8c1.1,0.5,2.1,1.2,2.9,2.2V60.4h4.4v36.4H294.1z M285.6,93.6
			c1.4,0,2.7-0.3,3.8-1c1.1-0.7,2.1-1.6,3-2.8V77.7c-0.8-1.1-1.7-1.8-2.7-2.3s-2-0.7-3.2-0.7c-2.3,0-4.1,0.8-5.4,2.5
			c-1.3,1.7-1.9,4-1.9,7.1c0,1.6,0.1,3,0.4,4.2c0.3,1.2,0.7,2.1,1.2,2.9c0.5,0.7,1.2,1.3,2,1.6C283.7,93.5,284.6,93.6,285.6,93.6z"
			/>
		<path d="M318.5,75.9c-0.2,0.4-0.5,0.5-0.9,0.5c-0.2,0-0.5-0.1-0.8-0.3c-0.3-0.2-0.7-0.4-1.1-0.6c-0.5-0.2-1-0.4-1.6-0.6
			c-0.6-0.2-1.4-0.3-2.2-0.3c-0.7,0-1.4,0.1-2,0.3c-0.6,0.2-1.1,0.5-1.5,0.8c-0.4,0.3-0.7,0.7-1,1.1c-0.2,0.4-0.3,0.9-0.3,1.4
			c0,0.6,0.2,1.2,0.6,1.6c0.4,0.4,0.9,0.8,1.5,1.1c0.6,0.3,1.3,0.6,2.1,0.8c0.8,0.2,1.6,0.5,2.4,0.8c0.8,0.3,1.6,0.6,2.4,0.9
			c0.8,0.3,1.5,0.7,2.1,1.2c0.6,0.5,1.1,1.1,1.5,1.8c0.4,0.7,0.6,1.6,0.6,2.6c0,1.2-0.2,2.2-0.6,3.2c-0.4,1-1,1.8-1.8,2.5
			c-0.8,0.7-1.8,1.3-3,1.7c-1.2,0.4-2.5,0.6-4.1,0.6c-1.7,0-3.3-0.3-4.7-0.9c-1.4-0.6-2.6-1.3-3.6-2.2l1-1.7
			c0.1-0.2,0.3-0.4,0.5-0.5c0.2-0.1,0.4-0.2,0.7-0.2c0.3,0,0.6,0.1,0.9,0.3c0.3,0.2,0.7,0.5,1.2,0.8c0.5,0.3,1,0.5,1.7,0.8
			c0.7,0.2,1.5,0.3,2.5,0.3c0.9,0,1.6-0.1,2.2-0.3c0.6-0.2,1.2-0.5,1.6-0.9c0.4-0.4,0.7-0.8,1-1.3c0.2-0.5,0.3-1,0.3-1.6
			c0-0.7-0.2-1.3-0.6-1.7c-0.4-0.5-0.9-0.8-1.5-1.2s-1.3-0.6-2.1-0.8c-0.8-0.2-1.6-0.5-2.4-0.8c-0.8-0.3-1.6-0.6-2.4-0.9
			c-0.8-0.3-1.5-0.8-2.1-1.3c-0.6-0.5-1.1-1.1-1.5-1.9c-0.4-0.7-0.6-1.7-0.6-2.7c0-1,0.2-1.9,0.6-2.8c0.4-0.9,1-1.7,1.7-2.3
			c0.8-0.7,1.7-1.2,2.8-1.6c1.1-0.4,2.4-0.6,3.8-0.6c1.6,0,3.1,0.3,4.4,0.8c1.3,0.5,2.4,1.2,3.4,2.1L318.5,75.9z"/>
		<path d="M335.7,71.4c1.8,0,3.5,0.3,5,0.9c1.5,0.6,2.7,1.5,3.8,2.6c1,1.1,1.8,2.5,2.4,4.1c0.6,1.6,0.8,3.4,0.8,5.3
			c0,2-0.3,3.8-0.8,5.3c-0.6,1.6-1.3,2.9-2.4,4.1c-1,1.1-2.3,2-3.8,2.6c-1.5,0.6-3.1,0.9-5,0.9c-1.8,0-3.5-0.3-5-0.9
			c-1.5-0.6-2.7-1.5-3.8-2.6c-1-1.1-1.8-2.5-2.4-4.1c-0.6-1.6-0.8-3.4-0.8-5.3c0-2,0.3-3.7,0.8-5.3c0.6-1.6,1.4-2.9,2.4-4.1
			c1-1.1,2.3-2,3.8-2.6C332.2,71.7,333.9,71.4,335.7,71.4z M335.7,93.7c2.5,0,4.3-0.8,5.5-2.5c1.2-1.7,1.8-4,1.8-6.9
			c0-3-0.6-5.3-1.8-7c-1.2-1.7-3.1-2.5-5.5-2.5c-1.3,0-2.3,0.2-3.3,0.6c-0.9,0.4-1.7,1-2.3,1.9c-0.6,0.8-1.1,1.8-1.4,3
			c-0.3,1.2-0.5,2.5-0.5,4c0,1.5,0.2,2.8,0.5,4c0.3,1.2,0.8,2.2,1.4,3c0.6,0.8,1.4,1.4,2.3,1.8C333.4,93.5,334.5,93.7,335.7,93.7z"
			/>
		<path d="M353.1,96.8v-25h2.6c0.6,0,1,0.3,1.2,0.9l0.3,2.7c1.1-1.2,2.3-2.2,3.6-2.9c1.3-0.7,2.9-1.1,4.7-1.1c1.4,0,2.6,0.2,3.6,0.7
			c1,0.5,1.9,1.1,2.6,1.9c0.7,0.8,1.2,1.8,1.6,3c0.4,1.2,0.5,2.5,0.5,3.9v15.9h-4.4V80.9c0-1.9-0.4-3.4-1.3-4.4
			c-0.9-1-2.2-1.6-4-1.6c-1.3,0-2.5,0.3-3.6,0.9c-1.1,0.6-2.2,1.5-3.1,2.5v18.4H353.1z"/>
		<path d="M395.5,92.8h15.3v4h-20.1V61.4h4.8V92.8z"/>
		<path d="M433.8,96.8h-2c-0.4,0-0.8-0.1-1-0.2c-0.3-0.1-0.4-0.4-0.5-0.8l-0.5-2.3c-0.7,0.6-1.3,1.1-1.9,1.6c-0.6,0.5-1.3,0.9-2,1.2
			c-0.7,0.3-1.4,0.6-2.2,0.7c-0.8,0.2-1.7,0.2-2.6,0.2c-1,0-1.9-0.1-2.7-0.4c-0.9-0.3-1.6-0.7-2.2-1.2s-1.1-1.2-1.5-2.1
			c-0.4-0.8-0.6-1.8-0.6-3c0-1,0.3-1.9,0.8-2.9c0.5-0.9,1.4-1.7,2.6-2.4c1.2-0.7,2.8-1.3,4.8-1.7c2-0.5,4.4-0.7,7.2-0.7v-2
			c0-2-0.4-3.4-1.2-4.4c-0.8-1-2.1-1.5-3.7-1.5c-1.1,0-2,0.1-2.7,0.4s-1.4,0.6-1.9,0.9s-1,0.6-1.4,0.9c-0.4,0.3-0.8,0.4-1.1,0.4
			c-0.3,0-0.6-0.1-0.8-0.2c-0.2-0.2-0.4-0.3-0.5-0.6l-0.8-1.4c1.4-1.3,2.9-2.3,4.5-3c1.6-0.7,3.4-1,5.3-1c1.4,0,2.6,0.2,3.7,0.7
			s2,1.1,2.7,1.9c0.7,0.8,1.3,1.8,1.7,3c0.4,1.2,0.6,2.5,0.6,3.9V96.8z M422.4,94.1c0.8,0,1.5-0.1,2.1-0.2c0.6-0.2,1.2-0.4,1.8-0.7
			s1.1-0.6,1.6-1.1c0.5-0.4,1-0.9,1.5-1.4v-5.2c-2,0-3.7,0.1-5.2,0.4c-1.4,0.3-2.6,0.6-3.5,1c-0.9,0.4-1.5,0.9-1.9,1.5
			c-0.4,0.6-0.6,1.2-0.6,1.9c0,0.7,0.1,1.2,0.3,1.7c0.2,0.5,0.5,0.9,0.9,1.2c0.4,0.3,0.8,0.5,1.3,0.7
			C421.3,94.1,421.8,94.1,422.4,94.1z"/>
		<path d="M440.5,96.8v-25h2.6c0.6,0,1,0.3,1.2,0.9l0.3,2.7c1.1-1.2,2.3-2.2,3.6-2.9c1.3-0.7,2.9-1.1,4.7-1.1c1.4,0,2.6,0.2,3.6,0.7
			s1.9,1.1,2.6,1.9c0.7,0.8,1.2,1.8,1.6,3s0.5,2.5,0.5,3.9v15.9h-4.4V80.9c0-1.9-0.4-3.4-1.3-4.4c-0.9-1-2.2-1.6-4-1.6
			c-1.3,0-2.5,0.3-3.6,0.9c-1.1,0.6-2.2,1.5-3.1,2.5v18.4H440.5z"/>
		<path d="M485.6,96.8c-0.6,0-1-0.3-1.2-0.9l-0.4-3c-1.1,1.3-2.3,2.3-3.7,3.1c-1.4,0.8-3,1.2-4.7,1.2c-1.4,0-2.7-0.3-3.9-0.8
			s-2.2-1.4-3-2.4c-0.8-1.1-1.5-2.4-1.9-4c-0.4-1.6-0.7-3.4-0.7-5.5c0-1.8,0.2-3.6,0.7-5.1c0.5-1.6,1.2-3,2.1-4.1
			c0.9-1.2,2.1-2.1,3.4-2.8c1.3-0.7,2.8-1,4.5-1c1.5,0,2.8,0.3,3.9,0.8c1.1,0.5,2.1,1.2,2.9,2.2V60.4h4.4v36.4H485.6z M477.1,93.6
			c1.4,0,2.7-0.3,3.8-1c1.1-0.7,2.1-1.6,3-2.8V77.7c-0.8-1.1-1.7-1.8-2.7-2.3s-2-0.7-3.2-0.7c-2.3,0-4.1,0.8-5.4,2.5
			c-1.3,1.7-1.9,4-1.9,7.1c0,1.6,0.1,3,0.4,4.2c0.3,1.2,0.7,2.1,1.2,2.9c0.5,0.7,1.2,1.3,2,1.6C475.1,93.5,476,93.6,477.1,93.6z"/>
		<path d="M509.9,75.9c-0.2,0.4-0.5,0.5-0.9,0.5c-0.2,0-0.5-0.1-0.8-0.3c-0.3-0.2-0.7-0.4-1.1-0.6c-0.5-0.2-1-0.4-1.6-0.6
			c-0.6-0.2-1.4-0.3-2.2-0.3c-0.7,0-1.4,0.1-2,0.3c-0.6,0.2-1.1,0.5-1.5,0.8s-0.7,0.7-1,1.1c-0.2,0.4-0.3,0.9-0.3,1.4
			c0,0.6,0.2,1.2,0.6,1.6c0.4,0.4,0.9,0.8,1.5,1.1c0.6,0.3,1.3,0.6,2.1,0.8c0.8,0.2,1.6,0.5,2.4,0.8c0.8,0.3,1.6,0.6,2.4,0.9
			c0.8,0.3,1.5,0.7,2.1,1.2c0.6,0.5,1.1,1.1,1.5,1.8c0.4,0.7,0.6,1.6,0.6,2.6c0,1.2-0.2,2.2-0.6,3.2c-0.4,1-1,1.8-1.8,2.5
			c-0.8,0.7-1.8,1.3-3,1.7c-1.2,0.4-2.5,0.6-4.1,0.6c-1.7,0-3.3-0.3-4.7-0.9c-1.4-0.6-2.6-1.3-3.6-2.2l1-1.7
			c0.1-0.2,0.3-0.4,0.5-0.5c0.2-0.1,0.4-0.2,0.7-0.2c0.3,0,0.6,0.1,0.9,0.3c0.3,0.2,0.7,0.5,1.2,0.8c0.5,0.3,1,0.5,1.7,0.8
			c0.7,0.2,1.5,0.3,2.5,0.3c0.9,0,1.6-0.1,2.2-0.3c0.6-0.2,1.2-0.5,1.6-0.9c0.4-0.4,0.7-0.8,1-1.3c0.2-0.5,0.3-1,0.3-1.6
			c0-0.7-0.2-1.3-0.6-1.7c-0.4-0.5-0.9-0.8-1.5-1.2s-1.3-0.6-2.1-0.8c-0.8-0.2-1.6-0.5-2.4-0.8c-0.8-0.3-1.6-0.6-2.4-0.9
			c-0.8-0.3-1.5-0.8-2.1-1.3c-0.6-0.5-1.1-1.1-1.5-1.9c-0.4-0.7-0.6-1.7-0.6-2.7c0-1,0.2-1.9,0.6-2.8c0.4-0.9,1-1.7,1.7-2.3
			c0.8-0.7,1.7-1.2,2.8-1.6c1.1-0.4,2.4-0.6,3.8-0.6c1.6,0,3.1,0.3,4.4,0.8c1.3,0.5,2.4,1.2,3.4,2.1L509.9,75.9z"/>
		<path d="M202.8,137.4c0.3,0,0.5,0.1,0.7,0.3l1.9,2.1c-1.4,1.7-3.2,3-5.3,3.9c-2.1,0.9-4.6,1.4-7.5,1.4c-2.6,0-4.9-0.4-6.9-1.3
			c-2.1-0.9-3.8-2.1-5.3-3.7c-1.5-1.6-2.6-3.5-3.4-5.7c-0.8-2.2-1.2-4.7-1.2-7.3c0-2.7,0.4-5.1,1.3-7.3s2.1-4.1,3.6-5.7
			c1.6-1.6,3.4-2.8,5.6-3.7c2.2-0.9,4.6-1.3,7.2-1.3c2.6,0,4.8,0.4,6.7,1.2c1.9,0.8,3.6,1.9,5,3.3l-1.6,2.2
			c-0.1,0.2-0.2,0.3-0.4,0.4c-0.1,0.1-0.4,0.2-0.6,0.2c-0.2,0-0.4-0.1-0.7-0.2c-0.2-0.2-0.5-0.3-0.9-0.6c-0.3-0.2-0.7-0.5-1.2-0.7
			c-0.4-0.3-1-0.5-1.6-0.7c-0.6-0.2-1.3-0.4-2.1-0.6c-0.8-0.2-1.7-0.2-2.8-0.2c-1.9,0-3.6,0.3-5.2,1c-1.6,0.7-2.9,1.6-4.1,2.8
			c-1.1,1.2-2,2.7-2.7,4.4c-0.6,1.7-1,3.7-1,5.8c0,2.2,0.3,4.2,1,5.9c0.6,1.7,1.5,3.2,2.6,4.4c1.1,1.2,2.4,2.1,3.9,2.7
			s3.1,0.9,4.8,0.9c1.1,0,2-0.1,2.8-0.2c0.8-0.1,1.6-0.3,2.3-0.6c0.7-0.3,1.4-0.6,2-1c0.6-0.4,1.2-0.9,1.9-1.4
			C202.2,137.6,202.5,137.4,202.8,137.4z"/>
		<path d="M221.1,119.3c1.8,0,3.5,0.3,5,0.9s2.7,1.5,3.8,2.6c1,1.1,1.8,2.5,2.4,4.1c0.6,1.6,0.8,3.4,0.8,5.3c0,2-0.3,3.8-0.8,5.3
			c-0.6,1.6-1.3,2.9-2.4,4.1c-1,1.1-2.3,2-3.8,2.6s-3.1,0.9-5,0.9c-1.8,0-3.5-0.3-5-0.9s-2.7-1.5-3.8-2.6c-1-1.1-1.8-2.5-2.4-4.1
			c-0.6-1.6-0.8-3.4-0.8-5.3c0-2,0.3-3.7,0.8-5.3c0.6-1.6,1.4-2.9,2.4-4.1c1-1.1,2.3-2,3.8-2.6S219.3,119.3,221.1,119.3z
			 M221.1,141.7c2.5,0,4.3-0.8,5.5-2.5c1.2-1.7,1.8-4,1.8-6.9c0-3-0.6-5.3-1.8-7s-3.1-2.5-5.5-2.5c-1.3,0-2.3,0.2-3.3,0.6
			c-0.9,0.4-1.7,1-2.3,1.9s-1.1,1.8-1.4,3c-0.3,1.2-0.5,2.5-0.5,4c0,1.5,0.2,2.8,0.5,4s0.8,2.2,1.4,3c0.6,0.8,1.4,1.4,2.3,1.8
			S219.8,141.7,221.1,141.7z"/>
		<path d="M238.4,144.7v-25h2.6c0.6,0,1,0.3,1.2,0.9l0.3,2.7c1.1-1.2,2.3-2.2,3.6-2.9c1.3-0.7,2.9-1.1,4.7-1.1
			c1.4,0,2.6,0.2,3.6,0.7c1,0.5,1.9,1.1,2.6,1.9c0.7,0.8,1.2,1.8,1.6,3c0.4,1.2,0.5,2.5,0.5,3.9v15.9h-4.4v-15.9
			c0-1.9-0.4-3.4-1.3-4.4c-0.9-1-2.2-1.6-4-1.6c-1.3,0-2.5,0.3-3.6,0.9s-2.2,1.5-3.1,2.5v18.4H238.4z"/>
		<path d="M280.2,123.9c-0.2,0.4-0.5,0.5-0.9,0.5c-0.2,0-0.5-0.1-0.8-0.3c-0.3-0.2-0.7-0.4-1.1-0.6c-0.5-0.2-1-0.4-1.6-0.6
			c-0.6-0.2-1.4-0.3-2.2-0.3c-0.7,0-1.4,0.1-2,0.3s-1.1,0.5-1.5,0.8s-0.7,0.7-1,1.1c-0.2,0.4-0.3,0.9-0.3,1.4c0,0.6,0.2,1.2,0.6,1.6
			c0.4,0.4,0.9,0.8,1.5,1.1c0.6,0.3,1.3,0.6,2.1,0.8c0.8,0.2,1.6,0.5,2.4,0.8c0.8,0.3,1.6,0.6,2.4,0.9c0.8,0.3,1.5,0.7,2.1,1.2
			c0.6,0.5,1.1,1.1,1.5,1.8c0.4,0.7,0.6,1.6,0.6,2.6c0,1.2-0.2,2.2-0.6,3.2c-0.4,1-1,1.8-1.8,2.5c-0.8,0.7-1.8,1.3-3,1.7
			c-1.2,0.4-2.5,0.6-4.1,0.6c-1.7,0-3.3-0.3-4.7-0.9c-1.4-0.6-2.6-1.3-3.6-2.2l1-1.7c0.1-0.2,0.3-0.4,0.5-0.5
			c0.2-0.1,0.4-0.2,0.7-0.2c0.3,0,0.6,0.1,0.9,0.3c0.3,0.2,0.7,0.5,1.2,0.8c0.5,0.3,1,0.5,1.7,0.8s1.5,0.3,2.5,0.3
			c0.9,0,1.6-0.1,2.2-0.3c0.6-0.2,1.2-0.5,1.6-0.9c0.4-0.4,0.7-0.8,1-1.3c0.2-0.5,0.3-1,0.3-1.6c0-0.7-0.2-1.3-0.6-1.7
			c-0.4-0.5-0.9-0.8-1.5-1.2s-1.3-0.6-2.1-0.8c-0.8-0.2-1.6-0.5-2.4-0.8c-0.8-0.3-1.6-0.6-2.4-0.9c-0.8-0.3-1.5-0.8-2.1-1.3
			c-0.6-0.5-1.1-1.1-1.5-1.9c-0.4-0.7-0.6-1.7-0.6-2.7c0-1,0.2-1.9,0.6-2.8s1-1.7,1.7-2.3c0.8-0.7,1.7-1.2,2.8-1.6
			c1.1-0.4,2.4-0.6,3.8-0.6c1.6,0,3.1,0.3,4.4,0.8c1.3,0.5,2.4,1.2,3.4,2.1L280.2,123.9z"/>
		<path d="M297.3,119.3c1.5,0,2.9,0.3,4.1,0.8c1.3,0.5,2.4,1.2,3.3,2.2c0.9,0.9,1.6,2.1,2.2,3.5c0.5,1.4,0.8,3,0.8,4.8
			c0,0.7-0.1,1.2-0.2,1.4c-0.1,0.2-0.4,0.3-0.8,0.3h-16.7c0,1.6,0.2,3,0.6,4.1c0.4,1.2,0.9,2.1,1.6,2.9c0.7,0.8,1.5,1.4,2.5,1.8
			c1,0.4,2,0.6,3.2,0.6c1.1,0,2.1-0.1,2.9-0.4c0.8-0.3,1.5-0.5,2.1-0.8c0.6-0.3,1.1-0.6,1.4-0.8c0.4-0.3,0.7-0.4,1-0.4
			c0.4,0,0.6,0.1,0.8,0.4l1.2,1.6c-0.5,0.7-1.2,1.2-2,1.7c-0.8,0.5-1.6,0.9-2.4,1.2c-0.9,0.3-1.8,0.5-2.7,0.7
			c-0.9,0.2-1.8,0.2-2.7,0.2c-1.7,0-3.3-0.3-4.8-0.9c-1.5-0.6-2.7-1.4-3.8-2.6c-1.1-1.1-1.9-2.5-2.5-4.2c-0.6-1.7-0.9-3.6-0.9-5.7
			c0-1.7,0.3-3.4,0.8-4.9c0.5-1.5,1.3-2.8,2.3-3.9c1-1.1,2.2-2,3.7-2.6C293.8,119.6,295.4,119.3,297.3,119.3z M297.4,122.6
			c-2.1,0-3.8,0.6-5,1.8c-1.2,1.2-2,2.9-2.3,5.1h13.6c0-1-0.1-2-0.4-2.8c-0.3-0.8-0.7-1.6-1.2-2.2c-0.5-0.6-1.2-1.1-2-1.4
			C299.3,122.7,298.4,122.6,297.4,122.6z"/>
		<path d="M313.2,144.7v-25h2.5c0.5,0,0.8,0.1,1,0.3c0.2,0.2,0.3,0.5,0.4,0.9l0.3,3.9c0.9-1.7,1.9-3.1,3.2-4.1
			c1.3-1,2.7-1.5,4.4-1.5c0.7,0,1.3,0.1,1.9,0.2c0.6,0.2,1.1,0.4,1.6,0.7l-0.6,3.3c-0.1,0.4-0.4,0.6-0.8,0.6c-0.2,0-0.6-0.1-1.1-0.2
			c-0.5-0.2-1.1-0.2-2-0.2c-1.5,0-2.8,0.4-3.8,1.3c-1,0.9-1.9,2.2-2.6,3.9v15.9H313.2z"/>
		<path d="M330,119.7h3.6c0.3,0,0.6,0.1,0.9,0.3c0.2,0.2,0.4,0.4,0.5,0.6l6.3,16.1c0.2,0.6,0.4,1.2,0.5,1.8s0.3,1.2,0.4,1.8
			c0.1-0.6,0.3-1.2,0.4-1.8s0.3-1.2,0.6-1.8l6.4-16.1c0.1-0.3,0.3-0.5,0.5-0.7c0.2-0.2,0.5-0.3,0.8-0.3h3.4l-10.2,25h-4L330,119.7z"
			/>
		<path d="M376.8,144.7h-2c-0.4,0-0.8-0.1-1-0.2c-0.3-0.1-0.4-0.4-0.5-0.8l-0.5-2.3c-0.7,0.6-1.3,1.1-1.9,1.6
			c-0.6,0.5-1.3,0.9-2,1.2c-0.7,0.3-1.4,0.6-2.2,0.7c-0.8,0.2-1.7,0.2-2.6,0.2c-1,0-1.9-0.1-2.7-0.4c-0.9-0.3-1.6-0.7-2.2-1.2
			s-1.1-1.2-1.5-2.1c-0.4-0.8-0.6-1.8-0.6-3c0-1,0.3-1.9,0.8-2.9c0.5-0.9,1.4-1.7,2.6-2.4c1.2-0.7,2.8-1.3,4.8-1.7
			c2-0.5,4.4-0.7,7.2-0.7v-2c0-2-0.4-3.4-1.2-4.4c-0.8-1-2.1-1.5-3.7-1.5c-1.1,0-2,0.1-2.7,0.4c-0.7,0.3-1.4,0.6-1.9,0.9
			c-0.5,0.3-1,0.6-1.4,0.9c-0.4,0.3-0.8,0.4-1.1,0.4c-0.3,0-0.6-0.1-0.8-0.2c-0.2-0.2-0.4-0.3-0.5-0.6l-0.8-1.4
			c1.4-1.3,2.9-2.3,4.5-3c1.6-0.7,3.4-1,5.3-1c1.4,0,2.6,0.2,3.7,0.7s2,1.1,2.7,1.9c0.7,0.8,1.3,1.8,1.7,3c0.4,1.2,0.6,2.5,0.6,3.9
			V144.7z M365.4,142.1c0.8,0,1.5-0.1,2.1-0.2c0.6-0.2,1.2-0.4,1.8-0.7s1.1-0.6,1.6-1.1c0.5-0.4,1-0.9,1.5-1.4v-5.2
			c-2,0-3.7,0.1-5.2,0.4c-1.4,0.3-2.6,0.6-3.5,1c-0.9,0.4-1.5,0.9-1.9,1.5c-0.4,0.6-0.6,1.2-0.6,1.9c0,0.7,0.1,1.2,0.3,1.7
			c0.2,0.5,0.5,0.9,0.9,1.2c0.4,0.3,0.8,0.5,1.3,0.7C364.3,142,364.8,142.1,365.4,142.1z"/>
		<path d="M383.5,144.7v-25h2.6c0.6,0,1,0.3,1.2,0.9l0.3,2.7c1.1-1.2,2.3-2.2,3.6-2.9c1.3-0.7,2.9-1.1,4.7-1.1
			c1.4,0,2.6,0.2,3.6,0.7s1.9,1.1,2.6,1.9c0.7,0.8,1.2,1.8,1.6,3c0.4,1.2,0.5,2.5,0.5,3.9v15.9h-4.4v-15.9c0-1.9-0.4-3.4-1.3-4.4
			c-0.9-1-2.2-1.6-4-1.6c-1.3,0-2.5,0.3-3.6,0.9s-2.2,1.5-3.1,2.5v18.4H383.5z"/>
		<path d="M428,124.2c-0.1,0.2-0.3,0.3-0.4,0.4c-0.1,0.1-0.3,0.1-0.6,0.1c-0.2,0-0.5-0.1-0.8-0.3c-0.3-0.2-0.7-0.4-1.1-0.7
			c-0.4-0.2-1-0.5-1.6-0.7c-0.6-0.2-1.4-0.3-2.3-0.3c-1.2,0-2.3,0.2-3.2,0.7c-0.9,0.4-1.7,1.1-2.4,1.9c-0.6,0.8-1.1,1.8-1.4,3
			c-0.3,1.2-0.5,2.5-0.5,3.9c0,1.5,0.2,2.9,0.5,4c0.3,1.2,0.8,2.2,1.5,3c0.6,0.8,1.4,1.4,2.3,1.8c0.9,0.4,1.9,0.6,3,0.6
			c1.1,0,2-0.1,2.6-0.4c0.7-0.3,1.3-0.5,1.7-0.9c0.5-0.3,0.8-0.6,1.1-0.9c0.3-0.3,0.6-0.4,0.9-0.4c0.4,0,0.7,0.1,0.8,0.4l1.2,1.6
			c-1.1,1.3-2.4,2.3-4.1,2.9c-1.6,0.6-3.4,0.9-5.2,0.9c-1.6,0-3-0.3-4.4-0.9s-2.5-1.4-3.5-2.5c-1-1.1-1.8-2.4-2.3-4
			c-0.6-1.6-0.9-3.4-0.9-5.5c0-1.9,0.3-3.6,0.8-5.2s1.3-2.9,2.3-4.1c1-1.1,2.2-2,3.7-2.7c1.5-0.6,3.1-1,5-1c1.7,0,3.3,0.3,4.6,0.9
			c1.3,0.6,2.5,1.4,3.6,2.4L428,124.2z"/>
		<path d="M441.4,152.1c-0.1,0.3-0.3,0.6-0.6,0.8c-0.2,0.2-0.6,0.3-1,0.3h-3.3l4.6-9.9l-10.3-23.6h3.8c0.4,0,0.7,0.1,0.9,0.3
			c0.2,0.2,0.4,0.4,0.5,0.6l6.7,15.8c0.1,0.4,0.3,0.7,0.4,1.1c0.1,0.4,0.2,0.7,0.3,1.1c0.1-0.4,0.2-0.7,0.3-1.1
			c0.1-0.4,0.2-0.7,0.4-1.1l6.5-15.7c0.1-0.3,0.3-0.5,0.5-0.7c0.2-0.2,0.5-0.3,0.8-0.3h3.5L441.4,152.1z"/>
	</g>
	<path d="M138.3,107.8c0,0,15-10.4,15.8-13.5c0.8-3.1-3.5-8.9-3.5-8.9s1.5-1.1,1.4-2.7c0-0.6-0.8-1.7-2.2-2.9
		c-1.4-1.2-6.1-2.6-6.1-2.6c2-1.2,0.7-4.4,0.5-4.7s-1.7-0.5-1.8-0.9s0.9-1.5,0.9-1.5s1-1.1,1.8-2.3c1.1-1.7-0.1-4.9-0.1-4.9
		l-3.4-7.2c-5.2-3.8-18.8-3.4-18.8-3.4l-1.1-1.6C106.4,49.5,81,61.8,81,61.8l-4.7-3.1c0,0-5.7,2.5-8.2,3.9C65.5,64,65.5,65,65.5,65
		l-1.8,6.2c0,0-8.7,2.6-8.9,3.5c-0.2,1,0,3.5,0,3.5l-5.3,3.5c-3.6,8.7,7.1,14.2,7.1,14.2s0.6,4.6,1.8,5.3c1.2,0.7,11.3,1.5,11.3,1.5
		l1.9-1.7l2.7,0.5l0.7-0.7l6.5,7.7c-0.4,2.6,0.6,7.7-0.8,8.9c-0.6,0.5-0.3,8.8,0.9,14.5c1.5,7.1,4.1,11.2,4,11.9
		c-0.1,1.5-4.5,3.2-4.5,3.2l-19.1,0.7l-14.2,1.4l1.8,1.8l15.3-0.3c0,0,11.9-0.5,14.4-0.3c2.5,0.3,6.8,0.9,10,0.8s7.6-1.1,7.6-1.1
		l10.6,1.7l45-0.7l1.8-1.8l-13.7-3l-38.9-1.3c0,0-0.3-0.1-1.2-1c-0.9-0.9-6-1.3-6.8-1.7c-0.8-0.5-1.9-3.1-2.3-3.9
		c-0.3-0.9-2.1-0.9-2.1-0.9c-1.1-1.3-2.3-8.2-2.3-8.2l3.1-6.6l5-2l4.6-0.5l5.9-0.8l0.8,0.2l1.5,1.8c0,0,11.3,3.5,15.2,4.5
		c3.9,0.9,3.4-0.3,3.4-0.3c3.3-1.3,11.4-11.3,11.4-11.3l-4.2-5.3l0.3-0.9L138.3,107.8z M69.8,98.1l0.3-1.8l2.9,1.5L69.8,98.1z
		 M74.4,96.8l-1.2-0.4l-1.9-1.7l1.1-2.2h1.3l1.7,2.9L74.4,96.8z M110.5,100l-1.5,1.6l-1.3,1l0.7-2.3L110.5,100z M111.2,100.4
		l0.6,0.3c0,0-1.6,2.6-2.1,3.5c-0.4,0.8-1.9,1.2-1.9,1.2s-0.6-0.8-0.3-1.4C107.8,103.5,111.2,100.4,111.2,100.4z M107.4,100.8
		c0,0-1.1,3-1.8,4.4c-0.7,1.4-0.8,1.3-0.8,1.3l-3.8,2.2l1.2-1.9v-1l1-1.1L107.4,100.8z M104.8,101.6l0.3-2.2l1.4,0.2L104.8,101.6z
		 M103.7,99.3h0.8v0.4l-0.3,1.3l-0.2,0.9c0,0-1.6,1.7-1.7,1.8L103.7,99.3z M96.9,95l-0.2,1.3l-3.6,4.5l0.4-2.9l1.1-2.1L96.9,95z
		 M87.5,95.1l2.2-0.5l-0.4,2.3l-0.1,0.6l0.2,0.4h1.8l-1.9,4.8l-3,4.9l0.7-7.4l0.4-2.3L87.5,95.1z M76.2,99.9l1-1.9l1.5,3.6l-1.5-1
		L76.2,99.9z M82.9,105.1l-4.2-8.9l2.3-4.1l0.2,2.6l0.5,0.5l3,0.3l-0.5,1.4l-0.3,3.2L82.9,105.1z M86.6,124.1l-0.9-2.6l-0.2-4.4
		l0.2-1.7l3.8-5.5l1-2.6l4-5.7l3.7-4.3c0,0,0-0.1,0.6-1.6c0.2-0.5,0.8-0.7,1.2-0.9c0.4-0.2,0.8-0.4,1.1-0.5c0.4-0.1,0.6,0.1,0.6,0.1
		l-0.4,0.6l-0.3,1.2c0,0-0.3,1.6,0,2.1c0.3,0.5,1.5,1.2,1.5,1.2l-0.5,2.7l-0.5,0.9v1.5l-0.4,1v1.4l-6.1,5.6
		c-1.2,0.3-1.9,1.1-1.9,1.1L86.6,124.1z M105.3,117.4l-1.6,0.3l0.3-0.7l1.3-0.7V117.4z M105,112.8v2.4c0,0-4.5,2.9-4.6,3
		c-0.1,0-3.8,0-3.8,0l-3.8,0.8v-0.7l3.7-4.6l8.1-3.9l8.6-6C113.1,112.9,105,112.8,105,112.8z M111,103.8l1.4-2.6l0.4,0.4l0.5,0.9
		l-1,0.6L111,103.8z"/>
</g>
</svg>
