<?xml version="1.0" encoding="utf-8"?>
<!-- Generator: Adobe Illustrator 22.0.1, SVG Export Plug-In . SVG Version: 6.00 Build 0)  -->
<svg version="1.1" id="Layer_1" xmlns="http://www.w3.org/2000/svg" xmlns:xlink="http://www.w3.org/1999/xlink" x="0px" y="0px"
	 viewBox="0 0 112 112" style="enable-background:new 0 0 112 112;" xml:space="preserve">
<style type="text/css">
	.st0{fill:#347458;}
</style>
<g>
	<path class="st0" d="M93.3,60.5c0,0,15-10.4,15.8-13.5c0.8-3.1-3.5-8.9-3.5-8.9s1.5-1.1,1.4-2.7c0-0.6-0.8-1.7-2.2-2.9
		c-1.4-1.2-6.1-2.6-6.1-2.6c2-1.2,0.7-4.4,0.5-4.7c-0.3-0.3-1.7-0.5-1.8-0.9s0.9-1.5,0.9-1.5s1-1.1,1.8-2.3c1.1-1.7-0.1-4.9-0.1-4.9
		l-3.4-7.2c-5.2-3.8-18.8-3.4-18.8-3.4l-1.1-1.6C61.4,2.1,36.1,14.5,36.1,14.5l-4.7-3.1c0,0-5.7,2.5-8.2,3.9s-2.7,2.5-2.7,2.5
		l-1.8,6.2c0,0-8.7,2.6-8.9,3.5c-0.2,1,0,3.5,0,3.5l-5.3,3.5c-3.6,8.7,7.1,14.2,7.1,14.2s0.6,4.6,1.8,5.3c1.2,0.7,11.3,1.5,11.3,1.5
		l1.9-1.7l2.7,0.5l0.7-0.7l6.5,7.7c-0.4,2.6,0.6,7.7-0.8,8.9c-0.6,0.5-0.3,8.8,0.9,14.5c1.5,7.1,4.1,11.2,4,11.9
		c-0.1,1.5-4.5,3.2-4.5,3.2l-19.1,0.7L2.8,102l1.8,1.8l15.3-0.3c0,0,11.9-0.5,14.4-0.3c2.5,0.3,6.8,0.9,10,0.8
		c3.2-0.1,7.6-1.1,7.6-1.1l10.6,1.7l45-0.7l1.8-1.8l-13.7-3l-38.9-1.3c0,0-0.3-0.1-1.2-1c-0.9-0.9-6-1.3-6.8-1.7s-1.9-3.1-2.3-3.9
		c-0.3-0.9-2.1-0.9-2.1-0.9c-1.1-1.3-2.3-8.2-2.3-8.2l3.1-6.6l5-2l4.6-0.5l5.9-0.8l0.8,0.2l1.5,1.8c0,0,11.3,3.5,15.2,4.5
		c3.9,0.9,3.4-0.3,3.4-0.3c3.3-1.3,11.4-11.3,11.4-11.3l-4.2-5.3l0.3-0.9L93.3,60.5z M24.9,50.8l0.3-1.8l2.9,1.5L24.9,50.8z
		 M29.5,49.5l-1.2-0.4l-1.9-1.7l1.1-2.2h1.3l1.7,2.9L29.5,49.5z M65.5,52.6l-1.5,1.6l-1.3,1l0.7-2.3L65.5,52.6z M66.3,53.1l0.6,0.3
		c0,0-1.6,2.6-2.1,3.5c-0.4,0.8-1.9,1.2-1.9,1.2s-0.6-0.8-0.3-1.4C62.9,56.1,66.3,53.1,66.3,53.1z M62.5,53.4c0,0-1.1,3-1.8,4.4
		c-0.7,1.4-0.8,1.3-0.8,1.3l-3.8,2.2l1.2-1.9v-1l1-1.1L62.5,53.4z M59.9,54.2l0.3-2.2l1.4,0.2L59.9,54.2z M58.8,52h0.8v0.4l-0.3,1.3
		l-0.2,0.9c0,0-1.6,1.7-1.7,1.8L58.8,52z M51.9,47.6l-0.2,1.3l-3.6,4.5l0.4-2.9l1.1-2.1L51.9,47.6z M42.5,47.7l2.2-0.5l-0.4,2.3
		l-0.1,0.6l0.2,0.4h1.8l-1.9,4.8l-3,4.9l0.7-7.4l0.4-2.3L42.5,47.7z M31.3,52.5l1-1.9l1.5,3.6l-1.5-1L31.3,52.5z M37.9,57.7
		l-4.2-8.9l2.3-4.1l0.2,2.6l0.5,0.5l3,0.3l-0.5,1.4l-0.3,3.2L37.9,57.7z M41.6,76.7L40.7,74l-0.2-4.4l0.2-1.7l3.8-5.5l1-2.6l4-5.7
		l3.7-4.3c0,0,0-0.1,0.6-1.6c0.2-0.5,0.8-0.7,1.2-0.9c0.4-0.2,0.8-0.4,1.1-0.5c0.4-0.1,0.6,0.1,0.6,0.1l-0.4,0.6l-0.3,1.2
		c0,0-0.3,1.6,0,2.1c0.3,0.5,1.5,1.2,1.5,1.2l-0.5,2.7l-0.5,0.9v1.5l-0.4,1v1.4l-6.1,5.6c-1.2,0.3-1.9,1.1-1.9,1.1L41.6,76.7z
		 M60.4,70l-1.6,0.3l0.3-0.7l1.3-0.7V70z M60,65.4v2.4c0,0-4.5,2.9-4.6,3c-0.1,0-3.8,0-3.8,0l-3.8,0.8v-0.7l3.7-4.6l8.1-3.9l8.6-6
		C68.1,65.5,60,65.4,60,65.4z M66.1,56.4l1.4-2.6l0.4,0.4l0.5,0.9l-1,0.6L66.1,56.4z"/>
</g>
</svg>
