<svg id="Layer_1" xmlns="http://www.w3.org/2000/svg" viewBox="0 0 480.2 113.6"><style>.st0{fill:#347458}</style><path class="st0" d="M166.2 32.3c0 2.7-.4 5.2-1.3 7.4s-2.1 4.1-3.7 5.7c-1.6 1.6-3.5 2.8-5.7 3.7-2.2.9-4.6 1.3-7.3 1.3h-13.6V14.1h13.6c2.7 0 5.1.4 7.3 1.3s4.1 2.1 5.7 3.7c1.6 1.6 2.8 3.5 3.7 5.8.9 2.2 1.3 4.7 1.3 7.4zm-5 0c0-2.2-.3-4.2-.9-6s-1.5-3.2-2.6-4.5c-1.1-1.2-2.5-2.1-4.1-2.8-1.6-.6-3.4-1-5.3-1h-8.7v28.4h8.7c1.9 0 3.7-.3 5.3-1 1.6-.6 2.9-1.6 4.1-2.8 1.1-1.2 2-2.7 2.6-4.5.6-1.6.9-3.6.9-5.8zM191.1 50.5h-2c-.4 0-.8-.1-1.1-.2-.3-.1-.4-.4-.5-.9L187 47c-.7.6-1.3 1.2-2 1.6-.6.5-1.3.9-2 1.2s-1.5.6-2.3.7c-.8.2-1.7.3-2.7.3-1 0-1.9-.1-2.8-.4-.9-.3-1.6-.7-2.3-1.3-.6-.6-1.2-1.3-1.5-2.1-.4-.9-.6-1.9-.6-3 0-1 .3-2 .8-2.9.6-.9 1.5-1.8 2.7-2.5 1.2-.7 2.9-1.3 4.9-1.8s4.5-.7 7.4-.7v-2c0-2-.4-3.5-1.3-4.6s-2.1-1.5-3.8-1.5c-1.1 0-2 .1-2.8.4-.8.3-1.4.6-2 .9-.6.3-1 .7-1.4.9-.4.3-.8.4-1.2.4-.3 0-.6-.1-.8-.2s-.4-.4-.5-.6l-.8-1.4c1.4-1.4 3-2.4 4.6-3.1 1.6-.7 3.5-1 5.5-1 1.4 0 2.7.2 3.8.7 1.1.5 2.1 1.1 2.8 2 .8.8 1.3 1.9 1.7 3.1.4 1.2.6 2.5.6 4v16.4zm-11.7-2.8c.8 0 1.5-.1 2.2-.2.7-.2 1.3-.4 1.9-.7.6-.3 1.1-.7 1.7-1.1.5-.4 1.1-.9 1.6-1.4V39c-2.1 0-3.9.1-5.3.4-1.5.3-2.6.6-3.6 1-.9.4-1.6.9-2 1.5-.4.6-.6 1.2-.6 1.9s.1 1.3.3 1.8c.2.5.5.9.9 1.2.4.3.8.5 1.3.7.4.1 1 .2 1.6.2zM193.9 24.7h3.7c.4 0 .7.1.9.3.2.2.4.4.5.7l6.5 16.6.6 1.8c.1.6.3 1.2.4 1.8.1-.6.3-1.2.4-1.8s.3-1.2.6-1.8l6.6-16.6c.1-.3.3-.5.5-.7s.5-.3.9-.3h3.5l-10.5 25.7h-4.1l-10.5-25.7zM229.2 16.7c0 .4-.1.9-.3 1.2s-.4.7-.7 1c-.3.3-.6.5-1 .7-.4.2-.8.3-1.2.3-.4 0-.9-.1-1.2-.3-.4-.2-.7-.4-1-.7-.3-.3-.5-.6-.7-1-.2-.4-.3-.8-.3-1.2 0-.4.1-.9.3-1.3.2-.4.4-.7.7-1 .3-.3.6-.5 1-.7.4-.2.8-.3 1.2-.3.4 0 .9.1 1.2.3.4.2.7.4 1 .7.3.3.5.6.7 1s.3.8.3 1.3zm-1 8v25.7h-4.5V24.7h4.5zM254.3 50.5c-.6 0-1.1-.3-1.2-.9l-.4-3.1c-1.1 1.3-2.4 2.4-3.8 3.2-1.4.8-3 1.2-4.9 1.2-1.5 0-2.8-.3-4-.9-1.2-.6-2.2-1.4-3.1-2.5-.8-1.1-1.5-2.5-2-4.1s-.7-3.5-.7-5.7c0-1.9.3-3.7.8-5.3s1.2-3.1 2.2-4.3c1-1.2 2.1-2.1 3.5-2.8 1.4-.7 2.9-1 4.7-1 1.6 0 2.9.3 4 .8s2.1 1.3 3 2.2V13.1h4.5v37.4h-2.6zm-8.8-3.3c1.5 0 2.8-.3 3.9-1s2.1-1.6 3.1-2.9V30.8c-.8-1.1-1.7-1.9-2.7-2.3-1-.4-2.1-.7-3.3-.7-2.4 0-4.2.9-5.5 2.6-1.3 1.7-1.9 4.1-1.9 7.3 0 1.7.1 3.1.4 4.3.3 1.2.7 2.2 1.3 2.9s1.2 1.3 2.1 1.7 1.5.6 2.6.6zM279.3 29c-.2.4-.5.6-.9.6-.3 0-.5-.1-.9-.3-.3-.2-.7-.4-1.2-.6-.5-.2-1-.4-1.7-.6-.6-.2-1.4-.3-2.3-.3-.8 0-1.4.1-2.1.3-.6.2-1.1.5-1.6.8-.4.3-.8.7-1 1.2s-.3.9-.3 1.5c0 .7.2 1.2.6 1.7.4.4.9.8 1.5 1.1.6.3 1.3.6 2.1.9.8.2 1.6.5 2.4.8s1.7.6 2.5.9c.8.3 1.5.8 2.1 1.3.6.5 1.1 1.1 1.5 1.9s.6 1.6.6 2.7c0 1.2-.2 2.3-.6 3.3-.4 1-1 1.9-1.9 2.6-.8.7-1.8 1.3-3 1.7-1.2.4-2.6.6-4.2.6-1.8 0-3.4-.3-4.9-.9-1.5-.6-2.7-1.3-3.7-2.2l1.1-1.7c.1-.2.3-.4.5-.5.2-.1.4-.2.7-.2.3 0 .6.1 1 .4.3.2.7.5 1.2.8.5.3 1.1.6 1.8.8.7.2 1.5.4 2.6.4.9 0 1.6-.1 2.3-.3s1.2-.5 1.7-.9c.4-.4.8-.8 1-1.3.2-.5.3-1 .3-1.6 0-.7-.2-1.3-.6-1.8-.4-.5-.9-.9-1.5-1.2s-1.3-.6-2.1-.9c-.8-.2-1.6-.5-2.5-.8-.8-.3-1.7-.6-2.5-.9-.8-.3-1.5-.8-2.1-1.3-.6-.5-1.1-1.2-1.5-1.9-.4-.8-.6-1.7-.6-2.8 0-1 .2-1.9.6-2.8.4-.9 1-1.7 1.8-2.4s1.7-1.2 2.9-1.6 2.4-.6 3.9-.6c1.7 0 3.2.3 4.6.8s2.5 1.3 3.5 2.2l-1.1 1.1zM297 24.3c1.9 0 3.6.3 5.1.9 1.5.6 2.8 1.5 3.9 2.7 1.1 1.2 1.9 2.5 2.4 4.2.6 1.6.9 3.5.9 5.5s-.3 3.9-.9 5.5c-.6 1.6-1.4 3-2.4 4.2-1.1 1.2-2.3 2-3.9 2.7s-3.2.9-5.1.9-3.6-.3-5.1-.9c-1.5-.6-2.8-1.5-3.9-2.7s-1.9-2.5-2.5-4.2c-.6-1.6-.9-3.5-.9-5.5s.3-3.8.9-5.5c.6-1.6 1.4-3 2.5-4.2 1.1-1.2 2.4-2 3.9-2.7 1.5-.5 3.2-.9 5.1-.9zm0 23c2.5 0 4.4-.9 5.7-2.6 1.3-1.7 1.9-4.1 1.9-7.1 0-3.1-.6-5.4-1.9-7.2-1.3-1.7-3.1-2.6-5.7-2.6-1.3 0-2.4.2-3.4.7-.9.4-1.7 1.1-2.4 1.9s-1.1 1.8-1.4 3.1-.5 2.6-.5 4.1c0 1.5.2 2.9.5 4.1.3 1.2.8 2.2 1.4 3s1.4 1.5 2.4 1.9c1 .5 2.1.7 3.4.7zM314.8 50.5V24.7h2.7c.6 0 1 .3 1.2.9l.4 2.8c1.1-1.2 2.4-2.2 3.7-3 1.4-.8 3-1.1 4.8-1.1 1.4 0 2.6.2 3.7.7 1.1.5 2 1.1 2.7 2 .7.9 1.3 1.9 1.6 3.1.4 1.2.6 2.5.6 4v16.4h-4.5V34.1c0-1.9-.4-3.5-1.3-4.5s-2.2-1.6-4.1-1.6c-1.3 0-2.6.3-3.7 1-1.2.6-2.2 1.5-3.2 2.6v18.9h-4.6zM358.5 46.3h15.7v4.1h-20.7V14.1h4.9v32.2zM397.8 50.5h-2c-.4 0-.8-.1-1.1-.2-.3-.1-.4-.4-.5-.9l-.5-2.4c-.7.6-1.3 1.2-2 1.6-.6.5-1.3.9-2 1.2s-1.5.6-2.3.7-1.7.3-2.7.3c-1 0-1.9-.1-2.8-.4-.9-.3-1.6-.7-2.3-1.3-.6-.6-1.2-1.3-1.5-2.1-.4-.9-.6-1.9-.6-3 0-1 .3-2 .8-2.9.6-.9 1.5-1.8 2.7-2.5 1.2-.7 2.9-1.3 4.9-1.8 2-.5 4.5-.7 7.4-.7v-2c0-2-.4-3.5-1.3-4.6-.9-1-2.1-1.5-3.8-1.5-1.1 0-2 .1-2.8.4-.8.3-1.4.6-2 .9-.6.3-1 .7-1.4.9-.4.3-.8.4-1.2.4-.3 0-.6-.1-.8-.2s-.4-.4-.5-.6l-.8-1.4c1.4-1.4 3-2.4 4.6-3.1 1.6-.7 3.5-1 5.5-1 1.4 0 2.7.2 3.8.7 1.1.5 2.1 1.1 2.8 2 .8.8 1.3 1.9 1.7 3.1.4 1.2.6 2.5.6 4v16.4zm-11.7-2.8c.8 0 1.5-.1 2.2-.2.7-.2 1.3-.4 1.9-.7.6-.3 1.1-.7 1.7-1.1.5-.4 1.1-.9 1.6-1.4V39c-2.1 0-3.9.1-5.3.4-1.5.3-2.6.6-3.6 1-.9.4-1.6.9-2 1.5-.4.6-.6 1.2-.6 1.9s.1 1.3.3 1.8c.2.5.5.9.9 1.2.4.3.8.5 1.3.7.4.1 1 .2 1.6.2zM404.7 50.5V24.7h2.7c.6 0 1 .3 1.2.9l.4 2.8c1.1-1.2 2.4-2.2 3.7-3 1.4-.8 3-1.1 4.8-1.1 1.4 0 2.6.2 3.7.7 1.1.5 2 1.1 2.7 2 .7.9 1.3 1.9 1.6 3.1.4 1.2.6 2.5.6 4v16.4h-4.5V34.1c0-1.9-.4-3.5-1.3-4.5s-2.2-1.6-4.1-1.6c-1.3 0-2.6.3-3.7 1-1.2.6-2.2 1.5-3.2 2.6v18.9h-4.6zM451 50.5c-.6 0-1-.3-1.2-.9l-.4-3.1c-1.1 1.3-2.4 2.4-3.8 3.2-1.4.8-3 1.2-4.9 1.2-1.5 0-2.8-.3-4-.9-1.2-.6-2.2-1.4-3.1-2.5-.8-1.1-1.5-2.5-2-4.1s-.7-3.5-.7-5.7c0-1.9.3-3.7.8-5.3s1.2-3.1 2.2-4.3c1-1.2 2.1-2.1 3.5-2.8s2.9-1 4.7-1c1.6 0 2.9.3 4 .8s2.1 1.3 3 2.2V13.1h4.5v37.4H451zm-8.8-3.3c1.5 0 2.8-.3 3.9-1s2.1-1.6 3.1-2.9V30.8c-.8-1.1-1.7-1.9-2.7-2.3-1-.4-2.1-.7-3.3-.7-2.4 0-4.2.9-5.5 2.6s-1.9 4.1-1.9 7.3c0 1.7.1 3.1.4 4.3.3 1.2.7 2.2 1.3 2.9s1.2 1.3 2.1 1.7c.7.4 1.6.6 2.6.6zM476 29c-.2.4-.5.6-.9.6-.3 0-.5-.1-.9-.3-.3-.2-.7-.4-1.2-.6-.5-.2-1-.4-1.7-.6-.6-.2-1.4-.3-2.3-.3-.8 0-1.4.1-2.1.3-.6.2-1.1.5-1.6.8-.4.3-.8.7-1 1.2s-.3.9-.3 1.5c0 .7.2 1.2.6 1.7.4.4.9.8 1.5 1.1.6.3 1.3.6 2.1.9.8.2 1.6.5 2.4.8s1.7.6 2.5.9c.8.3 1.5.8 2.1 1.3.6.5 1.1 1.1 1.5 1.9s.6 1.6.6 2.7c0 1.2-.2 2.3-.6 3.3-.4 1-1 1.9-1.9 2.6-.8.7-1.8 1.3-3 1.7-1.2.4-2.6.6-4.2.6-1.8 0-3.4-.3-4.9-.9-1.5-.6-2.7-1.3-3.7-2.2l1.1-1.7c.1-.2.3-.4.5-.5.2-.1.4-.2.7-.2.3 0 .6.1 1 .4.3.2.7.5 1.2.8.5.3 1.1.6 1.8.8.7.2 1.5.4 2.6.4.9 0 1.6-.1 2.3-.3s1.2-.5 1.7-.9c.4-.4.8-.8 1-1.3.2-.5.3-1 .3-1.6 0-.7-.2-1.3-.6-1.8-.4-.5-.9-.9-1.5-1.2s-1.3-.6-2.1-.9c-.8-.2-1.6-.5-2.5-.8-.8-.3-1.7-.6-2.5-.9-.8-.3-1.5-.8-2.1-1.3-.6-.5-1.1-1.2-1.5-1.9-.4-.8-.6-1.7-.6-2.8 0-1 .2-1.9.6-2.8.4-.9 1-1.7 1.8-2.4s1.7-1.2 2.9-1.6 2.4-.6 3.9-.6c1.7 0 3.2.3 4.6.8s2.5 1.3 3.5 2.2L476 29zM160.3 92.2c.3 0 .5.1.7.3l1.9 2.1c-1.5 1.7-3.3 3.1-5.4 4s-4.7 1.4-7.7 1.4c-2.6 0-5-.5-7.1-1.4-2.1-.9-4-2.2-5.5-3.8-1.5-1.6-2.7-3.6-3.5-5.9-.8-2.3-1.2-4.8-1.2-7.5s.4-5.3 1.3-7.5c.9-2.3 2.1-4.2 3.7-5.9 1.6-1.6 3.5-2.9 5.8-3.8s4.7-1.4 7.4-1.4 5 .4 6.9 1.2 3.7 2 5.2 3.4l-1.6 2.3c-.1.2-.3.3-.4.4-.2.1-.4.2-.7.2-.2 0-.5-.1-.7-.2-.2-.2-.5-.4-.9-.6-.3-.2-.7-.5-1.2-.8-.5-.3-1-.5-1.6-.8-.6-.2-1.4-.4-2.2-.6-.8-.2-1.8-.2-2.9-.2-1.9 0-3.7.3-5.3 1-1.6.7-3 1.6-4.2 2.9s-2.1 2.7-2.7 4.5c-.7 1.8-1 3.8-1 6 0 2.3.3 4.3 1 6.1.7 1.8 1.5 3.3 2.7 4.5 1.1 1.2 2.5 2.2 4 2.8 1.5.6 3.2 1 5 1 1.1 0 2.1-.1 2.9-.2.9-.1 1.7-.3 2.4-.6s1.4-.6 2.1-1c.6-.4 1.3-.9 1.9-1.5.4-.3.7-.4.9-.4zM179.2 73.6c1.9 0 3.6.3 5.1.9 1.5.6 2.8 1.5 3.9 2.7 1.1 1.2 1.9 2.5 2.4 4.2.6 1.6.9 3.5.9 5.5s-.3 3.9-.9 5.5c-.6 1.6-1.4 3-2.4 4.2-1.1 1.2-2.3 2-3.9 2.7-1.5.6-3.2.9-5.1.9-1.9 0-3.6-.3-5.1-.9-1.5-.6-2.8-1.5-3.9-2.7-1.1-1.2-1.9-2.5-2.5-4.2-.6-1.6-.9-3.5-.9-5.5s.3-3.8.9-5.5c.6-1.6 1.4-3 2.5-4.2 1.1-1.2 2.4-2 3.9-2.7 1.5-.6 3.2-.9 5.1-.9zm0 22.9c2.5 0 4.4-.8 5.7-2.6 1.3-1.7 1.9-4.1 1.9-7.1 0-3.1-.6-5.5-1.9-7.2-1.3-1.7-3.1-2.6-5.7-2.6-1.3 0-2.4.2-3.4.7-.9.4-1.7 1.1-2.4 1.9s-1.1 1.8-1.4 3.1a17.045 17.045 0 0 0 0 8.2c.3 1.2.8 2.2 1.4 3s1.4 1.5 2.4 1.9c1 .5 2.1.7 3.4.7zM197 99.7V74h2.7c.6 0 1 .3 1.2.9l.4 2.8c1.1-1.2 2.4-2.2 3.7-3 1.4-.8 3-1.1 4.8-1.1 1.4 0 2.6.2 3.7.7 1.1.5 2 1.1 2.7 2 .7.9 1.3 1.9 1.6 3.1.4 1.2.6 2.5.6 4v16.4h-4.5V83.3c0-1.9-.4-3.5-1.3-4.5-.9-1.1-2.2-1.6-4.1-1.6-1.3 0-2.6.3-3.7 1-1.2.6-2.2 1.5-3.2 2.6v18.9H197zM240 78.2c-.2.4-.5.6-.9.6-.3 0-.5-.1-.9-.3s-.7-.4-1.2-.6c-.5-.2-1-.4-1.7-.6-.6-.2-1.4-.3-2.3-.3-.8 0-1.4.1-2.1.3-.6.2-1.1.5-1.6.8s-.8.7-1 1.2-.3.9-.3 1.5c0 .7.2 1.2.6 1.6.4.4.9.8 1.5 1.1.6.3 1.3.6 2.1.9.8.2 1.6.5 2.4.8.8.3 1.7.6 2.5.9.8.3 1.5.8 2.1 1.3.6.5 1.1 1.1 1.5 1.9.4.7.6 1.6.6 2.7 0 1.2-.2 2.3-.6 3.3-.4 1-1 1.9-1.9 2.6s-1.8 1.3-3 1.7-2.6.6-4.2.6c-1.8 0-3.4-.3-4.9-.9-1.5-.6-2.7-1.3-3.7-2.2l1.1-1.7c.1-.2.3-.4.5-.5.2-.1.4-.2.7-.2s.6.1 1 .4c.3.2.7.5 1.2.8.5.3 1.1.5 1.8.8.7.2 1.5.4 2.6.4.9 0 1.7-.1 2.3-.3.7-.2 1.2-.5 1.6-.9.4-.4.8-.8 1-1.3.2-.5.3-1 .3-1.6 0-.7-.2-1.3-.6-1.8-.4-.5-.9-.9-1.5-1.2s-1.3-.6-2.1-.9c-.8-.2-1.6-.5-2.5-.8-.8-.3-1.7-.6-2.5-.9-.8-.3-1.5-.8-2.1-1.3-.6-.5-1.1-1.2-1.5-1.9-.4-.8-.6-1.7-.6-2.8 0-1 .2-1.9.6-2.8s1-1.7 1.8-2.4 1.7-1.2 2.9-1.6c1.1-.4 2.4-.6 3.9-.6 1.7 0 3.2.3 4.6.8 1.3.5 2.5 1.3 3.5 2.2l-1 1.2zM257.5 73.6c1.5 0 3 .3 4.3.8 1.3.5 2.4 1.3 3.4 2.2.9 1 1.7 2.2 2.2 3.6.5 1.4.8 3.1.8 4.9 0 .7-.1 1.2-.2 1.4s-.4.4-.9.4H250c0 1.6.3 3 .7 4.2.4 1.2 1 2.2 1.7 3s1.6 1.4 2.5 1.8c1 .4 2.1.6 3.3.6 1.1 0 2.1-.1 2.9-.4.8-.3 1.5-.5 2.1-.8.6-.3 1.1-.6 1.5-.9.4-.3.7-.4 1-.4.4 0 .7.1.9.4l1.3 1.6c-.6.7-1.2 1.3-2 1.8s-1.6.9-2.5 1.2c-.9.3-1.8.6-2.8.7-.9.2-1.9.2-2.8.2-1.8 0-3.4-.3-4.9-.9s-2.8-1.5-3.9-2.6c-1.1-1.2-1.9-2.6-2.6-4.3-.6-1.7-.9-3.7-.9-5.9 0-1.8.3-3.5.8-5 .5-1.6 1.3-2.9 2.4-4 1-1.1 2.3-2 3.8-2.7 1.4-.6 3.1-.9 5-.9zm.1 3.3c-2.2 0-3.9.6-5.2 1.9s-2 3-2.3 5.2h14c0-1-.1-2-.4-2.9-.3-.9-.7-1.6-1.3-2.3s-1.2-1.1-2-1.5-1.8-.4-2.8-.4zM273.9 99.7V74h2.6c.5 0 .8.1 1 .3.2.2.3.5.4 1l.3 4c.9-1.8 2-3.2 3.3-4.2 1.3-1 2.8-1.5 4.6-1.5.7 0 1.4.1 1.9.2.6.2 1.1.4 1.6.7l-.6 3.4c-.1.4-.4.6-.8.6-.2 0-.6-.1-1.1-.2-.5-.2-1.2-.2-2.1-.2-1.6 0-2.9.5-3.9 1.4-1.1.9-1.9 2.2-2.7 4v16.4h-4.5zM291.1 74h3.7c.4 0 .7.1.9.3.2.2.4.4.5.7l6.5 16.6.6 1.8c.2.6.3 1.2.4 1.8.1-.6.3-1.2.4-1.8s.3-1.2.6-1.8l6.6-16.6c.1-.3.3-.5.5-.7.2-.2.5-.3.9-.3h3.5l-10.5 25.7h-4.1L291.1 74zM339.2 99.7h-2c-.4 0-.8-.1-1.1-.2-.3-.1-.4-.4-.5-.9l-.5-2.4c-.7.6-1.3 1.2-2 1.6-.6.5-1.3.9-2 1.2s-1.5.6-2.3.7-1.7.3-2.7.3c-1 0-1.9-.1-2.8-.4-.9-.3-1.6-.7-2.3-1.3-.6-.6-1.2-1.3-1.5-2.1s-.6-1.9-.6-3c0-1 .3-2 .8-2.9.6-.9 1.5-1.8 2.7-2.5 1.2-.7 2.9-1.3 4.9-1.8 2-.5 4.5-.7 7.4-.7v-2c0-2-.4-3.5-1.3-4.6-.9-1-2.1-1.5-3.8-1.5-1.1 0-2 .1-2.8.4-.8.3-1.4.6-2 .9-.6.3-1 .7-1.4.9s-.8.4-1.2.4c-.3 0-.6-.1-.8-.2s-.4-.4-.5-.6l-.8-1.4c1.4-1.4 3-2.4 4.6-3.1 1.6-.7 3.5-1 5.5-1 1.4 0 2.7.2 3.8.7 1.1.5 2.1 1.1 2.8 2 .8.8 1.3 1.9 1.7 3.1.4 1.2.6 2.5.6 4v16.4zm-11.7-2.8c.8 0 1.5-.1 2.2-.2.7-.2 1.3-.4 1.9-.7.6-.3 1.1-.7 1.7-1.1s1.1-.9 1.6-1.4v-5.3c-2.1 0-3.9.1-5.3.4s-2.6.6-3.6 1-1.6.9-2 1.5c-.4.6-.6 1.2-.6 1.9s.1 1.3.3 1.8c.2.5.5.9.9 1.2.4.3.8.5 1.3.7s1 .2 1.6.2zM346.1 99.7V74h2.7c.6 0 1 .3 1.2.9l.4 2.8c1.1-1.2 2.4-2.2 3.7-3 1.4-.8 3-1.1 4.8-1.1 1.4 0 2.6.2 3.7.7 1.1.5 2 1.1 2.7 2 .7.9 1.3 1.9 1.6 3.1.4 1.2.6 2.5.6 4v16.4H363V83.3c0-1.9-.4-3.5-1.3-4.5s-2.2-1.6-4.1-1.6c-1.3 0-2.6.3-3.7 1-1.2.6-2.2 1.5-3.2 2.6v18.9h-4.6zM391.9 78.6c-.1.2-.3.3-.4.4s-.3.2-.6.2-.5-.1-.8-.3-.7-.4-1.1-.7c-.5-.3-1-.5-1.7-.7-.7-.2-1.5-.3-2.4-.3-1.3 0-2.4.2-3.3.7-1 .4-1.8 1.1-2.4 1.9-.7.8-1.1 1.9-1.5 3.1-.3 1.2-.5 2.5-.5 4 0 1.6.2 2.9.5 4.2.4 1.2.9 2.2 1.5 3 .6.8 1.4 1.4 2.3 1.9.9.4 2 .6 3.1.6s2-.1 2.7-.4c.7-.3 1.3-.6 1.8-.9s.9-.6 1.2-.9.6-.4.9-.4c.4 0 .7.1.9.4l1.3 1.6a9.07 9.07 0 0 1-4.2 3c-1.7.6-3.4 1-5.3 1-1.6 0-3.1-.3-4.5-.9-1.4-.6-2.6-1.5-3.6-2.6s-1.8-2.5-2.4-4.2-.9-3.5-.9-5.6c0-1.9.3-3.7.8-5.3.5-1.6 1.3-3 2.3-4.2 1-1.2 2.3-2.1 3.8-2.8 1.5-.7 3.2-1 5.2-1 1.8 0 3.4.3 4.8.9 1.4.6 2.6 1.4 3.7 2.5l-1.2 1.8zM405.6 107.3c-.2.3-.3.6-.6.8-.2.2-.6.3-1.1.3h-3.4l4.7-10.2L394.7 74h3.9c.4 0 .7.1.9.3.2.2.4.4.5.6l6.9 16.2c.2.4.3.7.4 1.1s.2.8.3 1.1c.1-.4.2-.8.4-1.1s.3-.8.4-1.1l6.7-16.2c.1-.3.3-.5.5-.7.2-.2.5-.3.8-.3h3.6l-14.4 33.4zM94.1 61.8s15.4-10.7 16.2-13.9c.8-3.2-3.6-9.2-3.6-9.2s1.5-1.1 1.4-2.8c0-.6-.8-1.8-2.3-3-1.5-1.2-6.2-2.7-6.2-2.7 2-1.2.7-4.5.5-4.8-.3-.3-1.8-.5-1.8-1-.1-.4.9-1.6.9-1.6s1.1-1.2 1.9-2.4c1.1-1.7-.1-5-.1-5L97.5 8c-5.3-3.9-19.3-3.5-19.3-3.5L77 3C61.3 1.8 35.2 14.5 35.2 14.5l-4.8-3.2s-5.8 2.5-8.5 4-2.7 2.5-2.7 2.5l-1.8 6.4s-8.9 2.6-9.1 3.6c-.2 1 0 3.6 0 3.6L2.8 35c-3.7 8.9 7.3 14.6 7.3 14.6s.6 4.7 1.8 5.5c1.2.8 11.6 1.5 11.6 1.5l2-1.7 2.7.5.7-.7 6.7 7.9c-.5 2.7.6 7.9-.8 9.2-.6.5-.4 9.1.9 14.9 1.6 7.3 4.2 11.5 4.1 12.2-.1 1.5-4.6 3.3-4.6 3.3l-19.6.8L1 104.4l1.8 1.8 15.7-.3s12.2-.5 14.8-.3c2.6.3 7 .9 10.3.8 3.3-.1 7.9-1.2 7.9-1.2l10.9 1.7 46.2-.8 1.8-1.8-14-3.1-40-1.3s-.3-.1-1.2-1c-1-.9-6.2-1.3-7-1.8-.8-.5-2-3.1-2.3-4-.3-.9-2.1-.9-2.1-.9-1.2-1.3-2.4-8.5-2.4-8.5l3.2-6.8 5.1-2 4.7-.5 6-.9.8.2 1.5 1.8s11.6 3.6 15.6 4.6c4 1 3.5-.3 3.5-.3 3.3-1.4 11.7-11.6 11.7-11.6l-4.3-5.5.3-.9h4.6zm-70.4-10L24 50l3 1.6-3.3.2zm4.7-1.3l-1.2-.4-2-1.7 1.1-2.2h1.3l1.7 3-.9 1.3zm37.1 3.2L64 55.3l-1.3 1 .7-2.4 2.1-.2zm.7.5l.7.3s-1.6 2.7-2.2 3.6c-.5.8-1.9 1.3-1.9 1.3s-.6-.8-.3-1.4c.3-.7 3.7-3.8 3.7-3.8zm-3.8.3s-1.1 3.1-1.8 4.5-.8 1.4-.8 1.4l-3.9 2.3 1.2-1.9v-1l1-1.1 4.3-4.2zm-2.7.8l.3-2.2 1.5.2-1.8 2zM58.5 53h.8v.4l-.3 1.4-.2 1s-1.6 1.7-1.7 1.8l1.4-4.6zm-7-4.4l-.2 1.3-3.7 4.7.4-3 1.2-2.1 2.3-.9zm-9.6 0l2.3-.5-.4 2.4-.1.6.2.4h1.8l-2 4.9-3.1 5.1.8-7.6.4-2.3.1-3zm-11.6 5l1-1.9 1.6 3.7-1.6-1-1-.8zm6.8 5.3l-4.3-9.1 2.4-4.2.3 2.7.6.6 3.1.3-.5 1.4-.3 3.3-1.3 5zm3.8 19.5l-1-2.7-.3-4.5.2-1.8 3.9-5.6 1.1-2.7 4.1-5.8 3.8-4.5s.1-.1.6-1.7c.2-.5.8-.7 1.2-.9.4-.2.8-.5 1.1-.5.4-.1.6.1.6.1l-.5.6-.4 1.3s-.4 1.6 0 2.1 1.6 1.3 1.6 1.3l-.6 2.8-.6.9v1.6l-.5 1.1v1.4l-6.3 5.7c-1.2.3-2 1.1-2 1.1l-6 10.7zm19.3-6.8l-1.6.3.3-.7 1.3-.7v1.1zm-.4-4.7v2.5s-4.6 3-4.8 3.1c-.2.1-3.9 0-3.9 0l-3.9.9v-.8l3.8-4.7 8.3-4 8.8-6.1c.1 9.2-8.3 9.1-8.3 9.1zm6.2-9.3l1.5-2.7.5.4.5 1-1 .6-1.5.7z"/></svg>