<?xml version="1.0" encoding="utf-8"?>
<!-- Generator: Adobe Illustrator 22.0.1, SVG Export Plug-In . SVG Version: 6.00 Build 0)  -->
<svg version="1.1" xmlns="http://www.w3.org/2000/svg" xmlns:xlink="http://www.w3.org/1999/xlink" x="0px" y="0px"
	 viewBox="0 0 168 160.5" style="enable-background:new 0 0 168 160.5;" xml:space="preserve">
<style type="text/css">
	.st0{fill:#FFFFFF;}
</style>
<g id="Layer_1">
	<g>
		<g>
			<path class="st0" d="M18.9,48.9c-1.1-0.3-2.1-0.5-3.2-0.9l0,0c0.8,0.7,1.7,1.7,2.5,2.6l1.4,1.6l1.7-2.7L18.9,48.9z M28.5,51.2
				l-3.1-0.7l-3,4.9l2.1,2.4L21.9,62L9.2,47.2l3-5l19.2,4.2L28.5,51.2z"/>
			<path class="st0" d="M38.8,40.7c-5.5,4.8-9.9,2.1-12.4-0.7c-4.1-4.6-4.1-9.9,0.4-14c0.9-0.8,2-1.5,3-2l2.6,3.8
				c-0.8,0.4-1.7,1-2.5,1.7C28.1,31,28,33.3,30,35.6c2.1,2.4,4.2,2.9,6.4,1c0.6-0.5,1.4-1.5,1.7-2.3l3.5,3
				C41,38.4,39.9,39.7,38.8,40.7"/>
			<path class="st0" d="M51.8,32.4c-6.5,3.4-10.1-0.4-11.9-3.7C37,23.2,38.3,18,43.7,15.2c1.1-0.6,2.3-1,3.4-1.3l1.6,4.4
				c-0.9,0.2-1.9,0.5-2.8,1c-2.1,1.1-2.7,3.3-1.3,6c1.5,2.9,3.4,3.8,6,2.5c0.7-0.4,1.7-1.1,2.2-1.8l2.7,3.8
				C54.4,30.8,53.1,31.7,51.8,32.4"/>
			<path class="st0" d="M61,13.4c-0.3,0.1-0.8,0.2-0.9,0.3l1,3.9c0.2,0,0.6-0.1,0.8-0.2c1.4-0.3,2.1-1.3,1.8-2.6
				C63.4,13.7,62.7,13,61,13.4 M67.2,26.8l-5-5.7L62,21.1l1.7,6.6l-5,1.3l-4.5-18c1.7-0.5,3.9-1.1,6.1-1.7c4.6-1.2,7.6-0.2,8.6,3.8
				c0.5,2.1-0.1,4.5-2,5.8c0.7,0.6,1.3,1.2,1.8,1.8l4.6,4.7L67.2,26.8z"/>
		</g>
		<polygon class="st0" points="86.3,6.3 75.4,6.6 76.1,25.2 86.9,24.8 86.8,20.4 81,20.6 80.9,17.6 86.4,17.4 86.2,13.2 80.8,13.4 
			80.7,10.8 86.5,10.6 		"/>
		<g>
			<path class="st0" d="M100.1,12c-0.6-0.1-0.9-0.2-1.3-0.2l-1.9,9.8c0.2,0.1,0.6,0.2,1.1,0.3c2.2,0.4,4.3-0.8,5-4.2
				C103.5,14.9,103.4,12.6,100.1,12 M96.8,26.2c-2-0.4-3.9-0.8-5.8-1.3l3.5-18.2c1.4,0.2,3.9,0.6,6.6,1.1c5.3,1,8.6,3.9,7.4,10.5
				C107.3,24.6,102.7,27.3,96.8,26.2"/>
		</g>
		<polygon class="st0" points="109.8,29.4 116.7,12.2 121.5,14.1 114.5,31.3 		"/>
		<polygon class="st0" points="132.4,25 124.9,37.1 120.5,34.4 128.1,22.3 124.7,20.2 127,16.5 138.1,23.4 135.8,27.2 		"/>
		<polygon class="st0" points="130.2,40.9 143.4,27.9 151.1,35.6 147.9,38.7 143.9,34.6 142.1,36.4 145.9,40.3 142.9,43.2 
			139.1,39.3 136.9,41.4 140.9,45.5 137.8,48.6 		"/>
		<g>
			<path class="st0" d="M155.7,50.4c-0.3-0.5-0.4-0.8-0.6-1.1l-8.9,4.4c0.1,0.2,0.2,0.6,0.5,1.1c1,2,3.2,3,6.3,1.4
				C155.6,54.9,157.2,53.5,155.7,50.4 M142.5,56.4c-0.9-1.8-1.7-3.6-2.5-5.4l16.6-8.2c0.7,1.3,1.9,3.5,3.1,5.9
				c2.4,4.9,2.1,9.3-3.9,12.2C150.1,63.8,145.2,61.8,142.5,56.4"/>
			<path class="st0" d="M8.3,86.8c0.5-0.2,1-0.4,1.4-0.5v0c-0.4-0.1-0.9-0.2-1.4-0.4L5.7,85l0.2,2.8L8.3,86.8z M2.8,89.1l1.7-0.7
				l-0.2-3.7l-1.8-0.6l-0.1-1.8l9.1,2.9l0.1,2.2L3,91.1L2.8,89.1z"/>
			<path class="st0" d="M4.6,99.3c-0.7-2.8,0.6-4.6,3.2-5.3c2.5-0.6,5,0.2,5.8,3.5c0.1,0.6,0.3,1.3,0.2,1.9l-1.6,0.2
				c0-0.7,0-1.3-0.2-1.9c-0.4-1.7-1.9-2.3-3.6-1.9c-1.9,0.5-2.6,1.7-2.2,3.4c0.2,0.6,0.5,1.2,0.9,1.7l-1.6,0.6
				C5.1,100.9,4.8,100.2,4.6,99.3"/>
			<path class="st0" d="M8.1,109.2c-1.2-2.7-0.2-4.7,2.3-5.8c2.3-1,5-0.6,6.3,2.5c0.2,0.5,0.5,1.2,0.5,1.8l-1.6,0.5
				c-0.1-0.7-0.2-1.3-0.5-1.8c-0.7-1.6-2.2-1.9-3.9-1.2c-1.8,0.8-2.3,2.1-1.6,3.7c0.3,0.6,0.7,1.2,1.1,1.5l-1.5,0.8
				C8.9,110.7,8.5,110,8.1,109.2"/>
			<path class="st0" d="M19.1,113.3c-0.2-0.3-0.3-0.5-0.5-0.6l-2.2,1.4c0.1,0.2,0.3,0.5,0.4,0.7c0.5,0.8,1.3,1,2.1,0.6
				C19.6,114.9,19.6,114.1,19.1,113.3 M13.7,118.9l1.7-4.1l0-0.1l-3.1,2l-1-1.5l7.5-4.8c0.4,0.5,1,1.5,1.6,2.4
				c1.1,1.8,1.1,3.3-0.3,4.1c-1.2,0.8-2.5,0.4-3.5-0.6c-0.1,0.3-0.2,0.7-0.4,1.1l-1.3,3.5L13.7,118.9z"/>
		</g>
		<polygon class="st0" points="17.3,123.8 24.1,118 27.5,121.9 26.4,122.9 24.2,120.3 22.5,121.8 24.7,124.2 23.6,125.1 21.5,122.7 
			19.7,124.3 21.9,126.8 20.8,127.8 		"/>
		<g>
			<path class="st0" d="M30.9,127.1c-0.3-0.2-0.6-0.5-0.9-0.7l-3.9,4.5c0.2,0.2,0.5,0.5,0.8,0.8c1.4,1.2,3,1.3,4.3-0.3
				C32.5,129.8,32.4,128.4,30.9,127.1 M25.7,132.6c-0.8-0.7-1.5-1.3-2.1-1.8l5.8-6.8c0.6,0.5,1.7,1.4,2.5,2.1
				c2.2,1.9,2.8,4.1,0.8,6.4C30.6,134.9,28,134.6,25.7,132.6"/>
		</g>
		
			<rect x="31.6" y="134" transform="matrix(0.5628 -0.8266 0.8266 0.5628 -95.7373 88.7608)" class="st0" width="8.9" height="1.8"/>
		<polygon class="st0" points="44.4,136.6 40.9,143.1 39.3,142.2 42.8,135.7 40.7,134.5 41.5,133.2 47.4,136.4 46.6,137.8 		"/>
		<g>
			<path class="st0" d="M51.2,141.7c0-0.5,0.1-1,0.1-1.5l0,0c-0.3,0.4-0.6,0.8-0.9,1.1l-1.8,2l2.6,1.1L51.2,141.7z M50.9,147.7
				l0.1-1.8l-3.4-1.4l-1.3,1.4l-1.7-0.7l6.5-7l2,0.8l-0.3,9.5L50.9,147.7z"/>
		</g>
		<polygon class="st0" points="60.6,143.1 58.5,150.2 56.8,149.7 58.8,142.6 56.5,141.9 56.9,140.4 63.4,142.3 63,143.8 		"/>
		<polygon class="st0" points="64.1,151.6 65.9,142.8 67.7,143.2 65.9,151.9 		"/>
		<g>
			<path class="st0" d="M74.4,145.7c-1.3-0.1-2.6,0.8-2.8,2.7c-0.2,1.7,0.4,3.1,2.1,3.3c1.4,0.2,2.7-0.7,2.9-2.7
				C76.8,147,75.9,145.8,74.4,145.7 M73.4,153.2c-2.9-0.3-4.1-2.3-3.8-5c0.3-2.9,2.7-4.5,5.1-4.2c2.6,0.3,4.2,2,3.8,5
				C78.2,152,76,153.5,73.4,153.2"/>
			<path class="st0" d="M87.4,153.6l-3.1-4.8c-0.3-0.5-0.7-1.2-0.9-1.7h0c0,0.5,0.1,1,0.1,1.9l0.1,4.7l-1.8,0l-0.2-8.9l2.5,0
				l3.1,4.7c0.3,0.5,0.7,1.1,1,1.7h0c0-0.6-0.1-1.4-0.1-2.6l-0.1-3.9l1.8,0l0.2,8.9L87.4,153.6z"/>
			<path class="st0" d="M101.7,152.1c-2.8,0.5-4.6-0.9-5.1-3.6c-0.4-2.5,0.6-5,3.9-5.5c0.6-0.1,1.3-0.2,1.9-0.1l0.1,1.6
				c-0.7-0.1-1.3-0.1-1.9,0c-1.7,0.3-2.4,1.7-2.1,3.5c0.3,1.9,1.5,2.7,3.2,2.4c0.7-0.1,1.3-0.4,1.8-0.7l0.4,1.6
				C103.3,151.7,102.6,152,101.7,152.1"/>
			<path class="st0" d="M109.3,142.4c-1.3,0.4-2.1,1.7-1.5,3.6c0.5,1.6,1.6,2.7,3.2,2.2c1.4-0.4,2.2-1.7,1.6-3.6
				C112,142.7,110.7,142,109.3,142.4 M111.4,149.8c-2.7,0.9-4.7-0.5-5.5-3.1c-0.9-2.8,0.7-5.1,3-5.9c2.5-0.8,4.6,0.2,5.5,3.1
				C115.3,146.7,113.8,149,111.4,149.8"/>
			<path class="st0" d="M127.3,143.1l-2.6-3.9c-0.5-0.7-0.8-1.3-1.1-1.7l0,0c0.1,0.5,0.2,1.1,0.3,1.7l0.7,5.3l-1.8,0.8l-3.4-3.6
				c-0.5-0.5-1-1.1-1.4-1.6l0,0c0.3,0.6,0.5,1.3,0.7,2l1.5,4.4l-1.7,0.8l-2.7-8.7l2.1-1l3.7,3.8c0.4,0.4,0.8,0.9,1.1,1.3l0,0
				c-0.1-0.6-0.2-1.1-0.3-1.7l-0.7-5.3l2.1-1l5.1,7.5L127.3,143.1z"/>
			<path class="st0" d="M139.7,134.8l-3.3-3.4c-0.6-0.6-1.1-1.1-1.4-1.5l0,0c0.2,0.5,0.4,1,0.6,1.6l1.6,5.1l-1.6,1.1l-4-2.9
				c-0.5-0.4-1.2-0.9-1.6-1.3l0,0c0.4,0.6,0.7,1.2,1.1,1.9l2.2,4l-1.5,1.1l-4.2-8l1.9-1.4l4.3,3.1c0.5,0.3,0.9,0.7,1.4,1.1l0,0
				c-0.2-0.6-0.4-1-0.6-1.6l-1.6-5.1l1.9-1.4l6.3,6.4L139.7,134.8z"/>
		</g>
		<polygon class="st0" points="144.1,130.9 137.9,124.4 139.2,123.2 145.4,129.6 		"/>
		<g>
			<path class="st0" d="M149.6,125.4c-0.4,0.5-0.9,1-1.3,1.3l-1.2-1.1c0.5-0.3,1-0.7,1.5-1.3c0.5-0.6,0.8-1.5,0.1-2.1
				c-1.2-1-3.1,2.5-5.3,0.6c-1.3-1.1-1.3-2.8,0.2-4.6c0.3-0.4,0.8-0.9,1.2-1.2l1.2,1.1c-0.4,0.3-1,0.7-1.3,1.1
				c-0.7,0.9-0.7,1.5-0.2,2c1.2,1,3.2-2.5,5.4-0.7C151.1,121.7,151,123.7,149.6,125.4"/>
			<path class="st0" d="M155.3,117.7c-0.3,0.5-0.8,1.1-1.2,1.4l-1.4-0.9c0.4-0.3,0.9-0.8,1.3-1.5c0.4-0.7,0.5-1.6-0.2-2.1
				c-1.3-0.8-2.7,2.9-5.2,1.4c-1.4-0.9-1.7-2.6-0.5-4.6c0.3-0.4,0.7-1,1-1.3l1.3,0.9c-0.4,0.3-0.8,0.9-1.1,1.3c-0.6,1-0.5,1.6,0.1,2
				c1.3,0.8,2.8-2.9,5.2-1.4C156.4,113.8,156.5,115.7,155.3,117.7"/>
		</g>
		
			<rect x="154.4" y="103.6" transform="matrix(0.4253 -0.905 0.905 0.4253 -8.495 202.6913)" class="st0" width="1.8" height="8.9"/>
		<g>
			<path class="st0" d="M155.7,98.8c-0.4,1.3,0.3,2.7,2.1,3.3c1.6,0.5,3.1,0.2,3.6-1.5c0.4-1.4-0.2-2.7-2.1-3.3
				C157.4,96.7,156.1,97.4,155.7,98.8 M162.9,101.2c-0.8,2.8-3,3.6-5.6,2.8c-2.8-0.8-3.9-3.4-3.2-5.8c0.7-2.5,2.7-3.8,5.6-2.9
				C162.6,96.2,163.7,98.8,162.9,101.2"/>
			<path class="st0" d="M165.3,86.7l-5.1,2.6c-0.6,0.3-1.2,0.6-1.8,0.8v0c0.5,0,1,0,1.9,0.1l4.7,0.4l-0.1,1.8l-8.9-0.7l0.2-2.4
				l5-2.6c0.6-0.3,1.2-0.6,1.8-0.8l0,0c-0.6,0-1.4-0.1-2.6-0.2l-3.9-0.3l0.1-1.8l8.9,0.7L165.3,86.7z"/>
		</g>
		<polygon class="st0" points="33.2,115.4 41.1,107.9 42.9,109.9 36.8,115.7 39.2,118.2 37.4,119.8 		"/>
		<g>
			<path class="st0" d="M48.5,120.4c0.1-0.5,0.3-1.1,0.5-1.6l0,0c-0.4,0.3-0.8,0.7-1.3,1l-2.3,1.6l2.4,1.7L48.5,120.4z M46.6,126.9
				l0.5-1.9l-3.4-2.4l-1.6,1.2l-2.2-1.5l9.5-6.6l2.6,1.8L49,128.6L46.6,126.9z"/>
			<path class="st0" d="M59.1,133.1l-1-6.1c-0.1-0.7-0.2-1.6-0.2-2.2l0,0c-0.2,0.5-0.3,1-0.7,1.8l-2,4.9l-2.4-1l4.1-10l3.3,1.3
				l1,5.9c0.1,0.8,0.2,1.5,0.3,2.3l0,0c0.2-0.6,0.5-1.4,0.9-2.5l1.7-4.2l2.4,1l-4.1,10L59.1,133.1z"/>
			<path class="st0" d="M73.2,128c-0.4-0.1-0.9-0.1-1.2-0.1l-1.1,6.3c0.2,0.1,0.7,0.2,1.2,0.3c1.9,0.3,3.4-0.5,3.8-2.7
				C76.2,129.6,75.3,128.4,73.2,128 M71.4,136.6c-1.4-0.2-2.6-0.5-3.5-0.7l1.8-10.6c1,0.1,2.8,0.4,4.1,0.6c3.4,0.6,5.5,2.4,4.8,6.2
				C78,136,74.9,137.2,71.4,136.6"/>
		</g>
		<polygon class="st0" points="90.6,129 91.1,137.5 88.5,137.7 87.9,129.2 85.1,129.3 85,127.1 93.3,126.5 93.4,128.8 		"/>
		<g>
			<path class="st0" d="M99.5,127.3c-0.3,0.1-0.5,0.1-0.8,0.2l0.6,2.7c0.3,0,0.6-0.1,0.9-0.2c1-0.2,1.5-1,1.3-1.8
				C101.3,127.4,100.5,127.1,99.5,127.3 M103.3,135.5l-3.5-3.5l-0.1,0l0.9,4.1l-2.6,0.6l-2.4-10.5c0.8-0.2,2.4-0.6,3.7-0.9
				c2.6-0.6,4.3,0,4.8,2.1c0.4,1.6-0.4,2.9-1.8,3.6c0.3,0.2,0.6,0.6,1.1,1l3.1,2.9L103.3,135.5z"/>
			<path class="st0" d="M114.7,131.7c-3,1.4-5,0.6-6-1.6l-2.9-6.4l2.4-1.1l2.6,5.8c0.7,1.5,1.7,1.8,3.1,1.2c1.5-0.7,1.7-1.8,1-3.2
				l-2.6-5.7l2.4-1.1l2.7,6C118.5,127.8,117.9,130.2,114.7,131.7"/>
			<path class="st0" d="M125,126c-0.6,0.4-1.3,0.8-1.9,1l-1.3-2c0.6-0.2,1.4-0.5,2.1-1c0.7-0.5,1.1-1.3,0.6-1.9c-1-1.3-3.9,1.9-6-1
				c-1.2-1.7-0.8-3.8,1.6-5.5c0.5-0.3,1.2-0.7,1.7-1l1.2,1.9c-0.6,0.2-1.3,0.6-1.8,0.9c-0.9,0.7-1.1,1.3-0.7,1.8
				c0.9,1.3,4.1-1.8,6,0.9C128,121.9,127.4,124.2,125,126"/>
		</g>
		<polygon class="st0" points="128.9,111.2 135,117.1 133.1,119 127,113.1 125,115.1 123.4,113.5 129.2,107.6 130.9,109.2 		"/>
		<g>
			<path class="st0" d="M77.6,77.9c-5,4.7-9.3,8.2-13,10.6c-3.7,2.4-6.8,3.6-9.2,3.6c-4.3,0.1-7.9-1.4-10.9-4.3
				c-3-2.9-4.5-6.5-4.6-10.8c0-4,1.5-7.4,4.8-10.1c3.2-2.7,7.3-4.1,12.2-4.2c3.7,0,7.5,1.1,11.2,3.3c3.7,2.3,7.5,5.6,11.2,10.1
				L77.6,77.9z M128.3,67c-6.5-6.1-18.5-11.8-33.9-3.7c-2,1.2-4,2.6-6.1,4.3v0c-0.1,0.1-0.1,0.1-0.2,0.2c-2.1,1.7-4.3,3.7-6.5,5.9
				c-0.5-0.5-2.3-2.2-3.6-3.6c0,0-7.5-8.5-16.2-10.2c-8.7-1.7-17.1-0.5-23.5,7.8c-6.4,8.2-4.2,21.5,1.3,26.7
				c6.4,6.1,18.5,11.8,33.9,3.7c2-1.2,4-2.6,6.1-4.3v0c0.1-0.1,0.1-0.1,0.2-0.2c2.1-1.7,4.3-3.7,6.5-5.9c0,0,0,0,0,0l4.1-4.3
				c5-4.7,9.3-8.2,13-10.6c3.7-2.4,6.7-3.6,9.2-3.6c4.3-0.1,7.9,1.4,10.9,4.3c1.5,1.4,2.6,3,3.3,4.8c0.4,1,0.2,1.7-0.3,1.9
				c-0.4,0.1-1,0.1-1.4-1c-0.8-2.1-2.2-4.4-4.8-5.9c-5.7-3.3-10.9-1.9-14.1,0.4c-3.2,2.3-8.6,5.8-17.7,16c0,0,8.8,10.1,17.6,11.8
				c8.7,1.7,17.1,0.5,23.5-7.8C136,85.5,133.8,72.2,128.3,67"/>
		</g>
		<polygon class="st0" points="162.6,63 157.7,64 157.5,63.2 162.4,62.3 162.1,60.7 162.8,60.6 163.5,64.5 162.9,64.6 		"/>
		<g>
			<path class="st0" d="M158.9,72.1l3.2-0.9c0.6-0.2,1-0.3,1.4-0.3v0c-0.3,0-0.6-0.1-1-0.1l-3.8-0.8l-0.1-0.8l3.2-1.6
				c0.4-0.2,0.8-0.4,1.2-0.5v0c-0.5,0-0.9,0-1.5,0l-3.2,0l-0.1-0.8l5.7,0.1l0.1,0.9l-3.4,1.6c-0.4,0.2-0.7,0.3-1.1,0.5l0,0
				c0.4,0,0.7,0.1,1.1,0.2l3.7,0.8l0.1,0.9l-5.5,1.5L158.9,72.1z"/>
		</g>
	</g>
</g>
<g id="Layer_2">
</g>
</svg>
